<svg width="357" height="235" viewBox="0 0 357 235" fill="none" xmlns="http://www.w3.org/2000/svg">
<g clip-path="url(#clip0_1_191)">
<path d="M337.3 226.119H24.1C19.9 226.119 16.5 222.719 16.5 218.519V8.31875C16.5 4.11875 19.9 0.71875 24.1 0.71875H337.3C341.5 0.71875 344.9 4.11875 344.9 8.31875V218.419C345 222.719 341.5 226.119 337.3 226.119Z" fill="#00D5E4"/>
<path d="M326.2 218.519H35.2C31 218.519 27.6 215.119 27.6 210.919V16.0188C27.6 11.8188 31 8.41876 35.2 8.41876H326.2C330.4 8.41876 333.8 11.8188 333.8 16.0188V210.919C333.9 215.019 330.4 218.519 326.2 218.519Z" fill="#065090"/>
<path d="M115.6 29.6188H75.4V34.1188H115.6V29.6188Z" fill="#FCFDFD"/>
<path d="M101 39.6188H75.4V44.1188H101V39.6188Z" fill="#FCFDFD"/>
<path d="M218.5 39.6188H115.4V44.1188H218.5V39.6188Z" fill="#FCFDFD"/>
<path d="M282.5 39.6188H228.5V44.1188H282.5V39.6188Z" fill="#FF6452"/>
<path d="M150.5 49.6188H85.4V54.1188H150.5V49.6188Z" fill="#00D050"/>
<path d="M267.5 49.6188H170.5V54.1188H267.5V49.6188Z" fill="#FCFDFD"/>
<path d="M167 59.6188H75.4V64.1188H167V59.6188Z" fill="#FF6452"/>
<path d="M240.5 59.6188H175.4V64.1188H240.5V59.6188Z" fill="#00D5E4"/>
<path d="M150.5 69.6188H85.4V74.1188H150.5V69.6188Z" fill="#FCFDFD"/>
<path d="M170.5 79.6188H75.4V84.1188H170.5V79.6188Z" fill="#FCFDFD"/>
<path d="M140.5 89.6188H75.4V94.1188H140.5V89.6188Z" fill="#FCFDFD"/>
<path d="M204 99.6188H95.4V104.119H204V99.6188Z" fill="#FF6452"/>
<path d="M250.5 99.6188H215.4V104.119H250.5V99.6188Z" fill="#FCFDFD"/>
<path d="M300.5 99.6188H265.4V104.119H300.5V99.6188Z" fill="#FCFDFD"/>
<path d="M149.7 109.619H105.4V114.119H149.7V109.619Z" fill="#FCFDFD"/>
<path d="M164.5 119.619H105.4V124.119H164.5V119.619Z" fill="#FF6452"/>
<path d="M250.5 119.619H185.4V124.119H250.5V119.619Z" fill="#FCFDFD"/>
<path d="M292.5 119.619H265.4V124.119H292.5V119.619Z" fill="#FF6452"/>
<path d="M115.4 129.619H75.4V134.119H115.4V129.619Z" fill="#FCFDFD"/>
<path d="M140.5 139.619H75.4V144.119H140.5V139.619Z" fill="#FCFDFD"/>
<path d="M223.5 149.619H105.4V154.119H223.5V149.619Z" fill="#FCFDFD"/>
<path d="M308.5 149.619H235.4V154.119H308.5V149.619Z" fill="#00D5E4"/>
<path d="M145.5 159.619H105.4V164.119H145.5V159.619Z" fill="#FCFDFD"/>
<path d="M195.5 159.619H155.4V164.119H195.5V159.619Z" fill="#00D050"/>
<path d="M245.5 159.619H205.4V164.119H245.5V159.619Z" fill="#FCFDFD"/>
<path d="M140.5 169.619H75.4V174.119H140.5V169.619Z" fill="#FCFDFD"/>
<path d="M160.5 179.619H95.4V184.119H160.5V179.619Z" fill="#00D050"/>
<path d="M238 179.619H172.9V184.119H238V179.619Z" fill="#00D050"/>
<path d="M208 199.619H171.5V204.119H208V199.619Z" fill="#FCFDFD"/>
<path d="M192 189.619H95.4V194.119H192V189.619Z" fill="#FCFDFD"/>
<path d="M50.3 29.6188H45.8V34.1188H50.3V29.6188Z" fill="#5E94C1"/>
<path d="M50.3 39.6188H45.8V44.1188H50.3V39.6188Z" fill="#5E94C1"/>
<path d="M50.3 49.6188H45.8V54.1188H50.3V49.6188Z" fill="#5E94C1"/>
<path d="M50.3 59.6188H45.8V64.1188H50.3V59.6188Z" fill="#5E94C1"/>
<path d="M50.3 69.6188H45.8V74.1188H50.3V69.6188Z" fill="#5E94C1"/>
<path d="M50.3 79.6188H45.8V84.1188H50.3V79.6188Z" fill="#5E94C1"/>
<path d="M50.3 89.6188H45.8V94.1188H50.3V89.6188Z" fill="#5E94C1"/>
<path d="M50.3 99.6188H45.8V104.119H50.3V99.6188Z" fill="#5E94C1"/>
<path d="M50.3 109.619H45.8V114.119H50.3V109.619Z" fill="#5E94C1"/>
<path d="M50.3 119.619H45.8V124.119H50.3V119.619Z" fill="#5E94C1"/>
<path d="M50.3 129.619H45.8V134.119H50.3V129.619Z" fill="#5E94C1"/>
<path d="M50.3 139.619H45.8V144.119H50.3V139.619Z" fill="#5E94C1"/>
<path d="M50.3 149.619H45.8V154.119H50.3V149.619Z" fill="#5E94C1"/>
<path d="M50.3 159.619H45.8V164.119H50.3V159.619Z" fill="#5E94C1"/>
<path d="M50.3 169.619H45.8V174.119H50.3V169.619Z" fill="#5E94C1"/>
<path d="M50.3 179.619H45.8V184.119H50.3V179.619Z" fill="#5E94C1"/>
<path d="M50.3 189.619H45.8V194.119H50.3V189.619Z" fill="#5E94C1"/>
<path d="M50.3 199.619H45.8V204.119H50.3V199.619Z" fill="#5E94C1"/>
<path d="M143.7 199.619H95.4V204.119H143.7V199.619Z" fill="#FCFDFD"/>
<path d="M284.7 204.019L265.7 195.919V192.619L284.7 184.519V188.019L269.6 194.219L284.7 200.419V204.019Z" fill="#FCFDFD"/>
<path d="M298.1 179.719L289.8 208.419H287L295.3 179.719H298.1Z" fill="#FCFDFD"/>
<path d="M319.3 195.919L300.3 204.019V200.519L315.4 194.319L300.3 188.119V184.619L319.3 192.719V195.919Z" fill="#FCFDFD"/>
<path d="M337 234.419H20C9 234.419 0 225.419 0 214.419H357C357 225.519 348 234.419 337 234.419Z" fill="#00BBD3"/>
<g opacity="0.1">
<g opacity="0.1">
<path opacity="0.1" d="M129.4 218.519L204 8.31873H175.7L101.1 218.519H129.4Z" fill="white"/>
</g>
<g opacity="0.1">
<path opacity="0.1" d="M35.3 218.519H48.6L123.2 8.31873H35.3C31.1 8.31873 27.7 11.7187 27.7 15.9187V210.819C27.6 215.019 31.1 218.519 35.3 218.519Z" fill="white"/>
</g>
<g opacity="0.1">
<path opacity="0.1" d="M287.6 218.519H326.3C330.5 218.519 333.9 215.119 333.9 210.919V88.1187L287.6 218.519Z" fill="white"/>
</g>
</g>
<g opacity="0.1">
<g opacity="0.1">
<path opacity="0.1" d="M184.3 218.519H236.2L310.8 8.31873H258.9L184.3 218.519Z" fill="white"/>
</g>
</g>
<path d="M354.3 224.419C356 221.519 357 218.019 357 214.419H0C0 218.019 1 221.519 2.7 224.419H354.3Z" fill="#15D7E2"/>
</g>
<defs>
<clipPath id="clip0_1_191">
<rect width="357" height="233.7" fill="white" transform="translate(0 0.71875)"/>
</clipPath>
</defs>
</svg>
