<svg width="85" height="37" viewBox="0 0 85 37" fill="none" xmlns="http://www.w3.org/2000/svg">
<path d="M9.67188 0.28125C9.57812 0.984375 9.51562 1.70312 9.48438 2.4375C9.45312 3.15625 9.4375 3.90625 9.4375 4.6875C9.4375 6.07812 9.50781 7.5 9.64844 8.95312C9.78906 10.3906 10 11.8281 10.2812 13.2656C10.5625 14.7031 10.9141 16.1172 11.3359 17.5078C11.7578 18.8828 12.2422 20.1953 12.7891 21.4453C13.3516 22.6953 13.9766 23.8594 14.6641 24.9375C15.3672 26.0156 16.1406 26.9688 16.9844 27.7969C17.9062 26.8438 18.6484 25.75 19.2109 24.5156C19.7891 23.2656 20.2344 21.9688 20.5469 20.625C20.875 19.2656 21.0938 17.8984 21.2031 16.5234C21.3125 15.1484 21.375 13.8438 21.3906 12.6094H26.5469C26.5469 13.8438 26.6016 15.1406 26.7109 16.5C26.8203 17.8594 27.0312 19.2109 27.3438 20.5547C27.6562 21.8828 28.0938 23.1719 28.6562 24.4219C29.2188 25.6562 29.9531 26.7656 30.8594 27.75C32.1719 26.3281 33.3047 24.7188 34.2578 22.9219C35.2109 21.1094 36 19.2109 36.625 17.2266C37.25 15.2422 37.7109 13.2109 38.0078 11.1328C38.3047 9.05469 38.4531 7.01562 38.4531 5.01562C38.4531 3.34375 38.3594 1.73438 38.1719 0.1875C39.5469 0.25 40.7734 0.34375 41.8516 0.46875C42.9453 0.59375 43.8906 0.71875 44.6875 0.84375C45.5938 1 46.4062 1.15625 47.125 1.3125V7.21875C46.6094 7.04688 46.1016 6.91406 45.6016 6.82031C45.1172 6.71094 44.6406 6.59375 44.1719 6.46875C44.1719 9.82812 43.8438 12.9453 43.1875 15.8203C42.5469 18.6797 41.6484 21.3516 40.4922 23.8359C39.3359 26.3203 37.9531 28.625 36.3438 30.75C34.7344 32.875 32.9688 34.8594 31.0469 36.7031C29.6719 35.375 28.3906 33.8906 27.2031 32.25C26.0312 30.6094 24.9531 28.75 23.9688 26.6719C22.9531 28.75 21.8438 30.6172 20.6406 32.2734C19.4531 33.9297 18.1719 35.4219 16.7969 36.75C14.8906 34.9062 13.1484 32.9219 11.5703 30.7969C9.99219 28.6719 8.64062 26.3672 7.51562 23.8828C6.39062 21.3984 5.51562 18.7266 4.89062 15.8672C4.26562 12.9922 3.95312 9.875 3.95312 6.51562C3.39062 6.64062 2.84375 6.75781 2.3125 6.86719C1.79688 6.96094 1.28125 7.09375 0.765625 7.26562V1.3125C0.765625 1.32812 0.96875 1.29688 1.375 1.21875C1.79688 1.14062 2.39062 1.04688 3.15625 0.9375C3.9375 0.8125 4.875 0.695312 5.96875 0.585938C7.0625 0.460938 8.29688 0.359375 9.67188 0.28125Z" fill="#34547A"/>
<path d="M66.8594 0C69.2656 0 71.5312 0.210938 73.6562 0.632812C75.7812 1.05469 77.6406 1.64062 79.2344 2.39062C80.8281 3.14062 82.0859 4.04688 83.0078 5.10938C83.9297 6.15625 84.3906 7.3125 84.3906 8.57812V27.2344C84.3906 28.5 83.9297 29.6641 83.0078 30.7266C82.0859 31.7734 80.8281 32.6719 79.2344 33.4219C77.6406 34.1719 75.7812 34.7578 73.6562 35.1797C71.5312 35.6016 69.2656 35.8125 66.8594 35.8125C65.5156 35.8125 64.1406 35.7656 62.7344 35.6719C61.3281 35.5625 59.9609 35.4297 58.6328 35.2734C57.3203 35.1016 56.0859 34.9062 54.9297 34.6875C53.7734 34.4688 52.7812 34.2344 51.9531 33.9844V1.82812C52.7812 1.57812 53.7734 1.34375 54.9297 1.125C56.0859 0.90625 57.3203 0.71875 58.6328 0.5625C59.9609 0.390625 61.3281 0.257812 62.7344 0.164062C64.1406 0.0546875 65.5156 0 66.8594 0ZM66.9531 5.29688C65.5312 5.29688 64.2969 5.34375 63.25 5.4375C62.2031 5.51562 61.3047 5.625 60.5547 5.76562C59.8047 5.89062 59.1797 6.03125 58.6797 6.1875C58.1953 6.32812 57.7969 6.45312 57.4844 6.5625V29.25C57.7969 29.375 58.1953 29.5078 58.6797 29.6484C59.1797 29.7891 59.8047 29.9297 60.5547 30.0703C61.3047 30.1953 62.2031 30.3047 63.25 30.3984C64.2969 30.4766 65.5312 30.5156 66.9531 30.5156C68.7031 30.5156 70.2734 30.375 71.6641 30.0938C73.0703 29.8125 74.25 29.4375 75.2031 28.9688C76.1719 28.5 76.9141 27.9609 77.4297 27.3516C77.9453 26.7266 78.2031 26.0781 78.2031 25.4062V10.4062C78.2031 9.73438 77.9453 9.09375 77.4297 8.48438C76.9141 7.85938 76.1719 7.3125 75.2031 6.84375C74.25 6.375 73.0703 6 71.6641 5.71875C70.2734 5.4375 68.7031 5.29688 66.9531 5.29688Z" fill="#34547A"/>
</svg>
